# xmcd
#
# Track frame offsets:
# 150
# 18355
# 35924
# 53266
# 64825
# 80008
# 95621
# 108951
# 124068
# 140505
# 155723
# 179820
#
# Disc length: 2663 seconds
#
#
# Revision: 1
# Processed by: cddbd v1.5.2PL0 Copyright (c) Steve Scherf et al.
# Submitted via: FreeRIP 2.70 
#
DISCID=a70a650c
DTITLE=Papermoon - Christmas Unplugged
DYEAR=0006
DGENRE=
TTITLE0=Winter wonderland
TTITLE1=Mary´s boy child
TTITLE2=Es wird scho glei dumper
TTITLE3=Let it snow
TTITLE4=Merry Christmas everyone
TTITLE5=Heidschi Bumbeidschi
TTITLE6=Little drummer boy
TTITLE7=Amazing grace
TTITLE8=On a Christmas day
TTITLE9=On the day before Christmas
TTITLE10=Last Christmas
TTITLE11=Happy Christmas
EXTD=
EXTT0=
EXTT1=
EXTT2=
EXTT3=
EXTT4=
EXTT5=
EXTT6=
EXTT7=
EXTT8=
EXTT9=
EXTT10=
EXTT11=
PLAYORDER=
